<!DOCTYPE svg PUBLIC "-//W3C//DTD SVG 20010904//EN" "http://www.w3.org/TR/2001/REC-SVG-20010904/DTD/svg10.dtd">
<svg version="1.0" xmlns="http://www.w3.org/2000/svg" viewBox="0 0 3350 10130" preserveAspectRatio="xMidYMid meet">
<g id="layer101" fill="currentColor" stroke="none">
 <path d="M0 10100 c0 -20 5 -30 15 -30 8 0 15 -4 15 -10 0 -5 6 -10 13 -10 16 0 76 -55 105 -97 21 -29 22 -42 22 -211 0 -110 4 -183 10 -187 13 -8 13 -122 1 -130 -6 -3 -10 -122 -11 -286 0 -264 -1 -283 -20 -309 -11 -16 -20 -31 -20 -35 0 -10 -41 -45 -52 -45 -5 0 -6 -5 -2 -12 5 -7 1 -9 -12 -6 -17 4 -19 -1 -19 -43 0 -26 3 -45 7 -43 3 2 319 4 701 4 437 0 697 4 699 10 4 14 331 15 336 1 5 -14 1068 -15 1077 -1 3 6 28 10 56 10 27 0 49 5 49 10 0 6 11 10 25 10 14 0 25 4 25 8 0 5 16 14 35 22 19 8 35 17 35 22 0 4 5 8 10 8 14 0 80 66 80 80 0 5 5 10 10 10 6 0 10 9 10 20 0 11 5 20 10 20 6 0 10 9 10 20 0 11 5 20 10 20 6 0 10 47 10 120 0 73 -4 120 -10 120 -5 0 -10 9 -10 20 0 11 -4 20 -10 20 -5 0 -10 7 -10 15 0 8 -4 15 -10 15 -5 0 -10 6 -10 13 0 7 -9 19 -20 27 -11 8 -20 20 -20 26 0 12 -74 91 -119 127 -11 9 -30 17 -41 17 -10 0 -22 5 -25 10 -7 12 16 70 27 70 5 0 8 9 8 20 0 11 5 20 10 20 6 0 10 9 10 20 0 11 5 20 10 20 6 0 10 7 10 15 0 8 5 15 10 15 6 0 10 13 10 28 0 16 3 32 7 36 4 3 8 16 10 28 6 40 40 101 81 143 6 8 12 16 12 20 0 5 21 26 138 136 17 17 32 37 32 46 0 17 -24 43 -39 43 -6 0 -11 5 -11 10 0 6 -62 10 -165 10 -142 0 -165 -2 -165 -15 0 -9 -9 -25 -20 -37 -11 -12 -20 -28 -20 -35 0 -7 -4 -13 -10 -13 -5 0 -10 -8 -10 -18 0 -10 -9 -28 -20 -40 -11 -12 -20 -26 -20 -33 0 -6 -10 -28 -22 -48 -42 -67 -59 -96 -64 -113 -4 -10 -10 -18 -15 -18 -5 0 -9 -6 -9 -13 0 -7 -9 -23 -20 -35 -11 -12 -20 -28 -20 -37 0 -8 -4 -15 -10 -15 -5 0 -10 -7 -10 -15 0 -8 -4 -15 -9 -15 -4 0 -13 -15 -19 -32 -8 -26 -10 11 -11 160 l-1 193 51 50 c28 27 57 49 65 49 8 0 14 5 14 11 0 6 8 9 18 7 16 -5 18 -1 13 26 l-7 31 -142 3 c-137 2 -142 2 -142 -18 0 -11 -7 -20 -15 -20 -8 0 -15 5 -15 10 0 6 -15 10 -34 10 -19 0 -38 5 -41 10 -4 6 -55 10 -121 10 -112 0 -114 0 -114 -22 0 -15 26 -50 75 -98 l74 -76 1 -364 c1 -201 1 -449 0 -551 l0 -187 -58 -61 c-32 -34 -63 -61 -70 -61 -6 0 -14 -10 -19 -22 -5 -14 -10 101 -13 272 l-5 295 -22 3 c-14 2 -23 -2 -23 -10 0 -7 -9 -24 -20 -38 -11 -14 -20 -33 -20 -42 0 -10 -4 -18 -10 -18 -5 0 -10 -7 -10 -15 0 -8 -4 -15 -10 -15 -5 0 -10 -9 -10 -20 0 -11 -4 -20 -10 -20 -5 0 -10 -7 -10 -15 0 -8 -4 -15 -10 -15 -5 0 -10 -7 -10 -15 0 -8 -4 -15 -10 -15 -5 0 -10 -10 -10 -21 0 -12 -8 -29 -17 -38 -10 -9 -27 -34 -38 -56 l-20 -40 -117 -3 -118 -3 0 198 0 199 53 -1 c41 -1 59 -6 77 -23 13 -12 34 -22 47 -22 13 0 23 -4 23 -10 0 -5 16 -10 35 -10 l35 0 0 220 c0 140 4 220 10 220 6 0 10 9 10 20 0 33 -41 25 -67 -13 -13 -17 -48 -59 -79 -91 -43 -45 -65 -61 -95 -66 -21 -4 -41 -5 -44 -2 -3 3 -5 104 -5 224 0 188 2 218 15 218 8 0 24 5 35 12 15 10 27 10 52 1 18 -7 54 -13 81 -14 37 -2 50 -8 62 -26 9 -13 13 -28 10 -33 -3 -6 -1 -10 4 -10 6 0 11 -5 11 -11 0 -11 68 -79 79 -79 4 0 4 -23 2 -51 -2 -29 2 -56 8 -62 6 -6 11 -21 11 -34 0 -13 3 -23 8 -23 8 0 32 -48 32 -64 0 -18 43 -63 68 -70 l22 -7 0 340 0 341 -715 0 c-470 0 -715 -3 -715 -10 0 -5 -11 -10 -24 -10 -14 0 -28 -5 -31 -11 -4 -6 -13 -8 -19 -6 -27 11 -2 -49 41 -97 l43 -48 0 -229 c0 -126 0 -232 0 -235 0 -3 -55 -5 -122 -5 l-123 0 -3 67 c-2 38 -8 75 -15 83 -16 19 -16 213 -1 232 6 8 15 36 19 63 5 40 15 57 61 105 32 33 54 65 54 79 l0 22 -305 0 -305 0 0 -30z m1240 -100 c3 -3 17 -13 33 -23 l27 -17 0 -275 c0 -172 4 -276 10 -280 6 -3 10 -30 10 -60 0 -30 5 -57 10 -60 6 -3 10 -28 10 -56 0 -27 -4 -49 -10 -49 -5 0 -10 -16 -10 -35 0 -19 -4 -35 -10 -35 -6 0 -10 -54 -10 -143 l0 -143 -35 -34 c-19 -19 -35 -30 -35 -25 0 4 -8 -2 -19 -13 -10 -12 -24 -22 -30 -22 -7 0 -35 21 -62 47 l-49 46 0 94 c0 55 -4 93 -10 93 -5 0 -10 20 -10 45 0 25 4 45 10 45 6 0 10 100 12 258 l3 258 -25 -4 c-20 -4 -23 -2 -12 9 8 8 12 44 12 100 0 48 5 91 10 94 6 3 10 26 10 51 0 24 5 44 10 44 6 0 10 12 10 26 0 17 15 39 48 69 l47 44 25 -22 c14 -12 27 -24 30 -27z m-500 -956 l-1 -218 -62 -77 c-34 -42 -64 -72 -66 -66 -2 6 -18 25 -35 42 -84 86 -86 90 -86 206 0 63 -4 109 -11 116 -7 7 -9 27 -5 55 4 23 9 68 12 98 l5 55 120 -3 c90 -3 119 -1 119 9 0 7 3 10 6 7 3 -4 5 -104 4 -224z m2093 183 c30 -14 50 -30 53 -44 4 -13 10 -23 15 -23 5 0 9 -13 9 -30 0 -16 5 -30 10 -30 6 0 10 -18 10 -40 0 -22 -4 -40 -10 -40 -5 0 -10 -13 -10 -30 0 -16 -4 -30 -10 -30 -5 0 -10 -6 -10 -13 0 -16 -26 -38 -65 -56 -17 -7 -38 -17 -47 -22 -10 -5 -45 -9 -78 -9 l-60 0 0 198 0 198 73 -4 c48 -2 88 -10 120 -25z"/>
 <path d="M1123 7965 c-7 -8 -13 -18 -13 -23 0 -10 76 -81 133 -125 l36 -27 5 -308 c3 -169 8 -347 11 -396 4 -58 3 -92 -4 -99 -7 -7 -11 -69 -11 -169 0 -87 -3 -158 -8 -158 -4 0 -26 -18 -50 -40 -23 -22 -44 -40 -47 -40 -19 0 -45 -39 -45 -67 l0 -33 145 0 c90 0 145 4 145 10 0 6 48 10 125 10 77 0 125 4 125 10 0 6 16 10 35 10 19 0 35 -4 35 -10 0 -5 7 -10 15 -10 8 0 15 -4 15 -10 0 -6 65 -10 175 -10 l174 0 5 263 c2 144 7 283 11 310 l7 47 -31 0 c-21 0 -34 -6 -37 -17 -15 -44 -29 -73 -36 -73 -5 0 -8 -9 -8 -20 0 -11 -4 -20 -10 -20 -5 0 -10 -7 -10 -15 0 -8 -4 -15 -10 -15 -5 0 -10 -9 -10 -20 0 -11 -4 -20 -10 -20 -5 0 -10 -8 -10 -18 0 -10 -9 -24 -20 -32 -11 -8 -20 -22 -20 -32 0 -10 -5 -18 -11 -18 -5 0 -7 -4 -4 -10 3 -5 -3 -20 -14 -32 -12 -12 -21 -26 -21 -31 0 -29 -31 -37 -139 -37 l-111 0 0 205 0 205 48 0 c34 0 54 -6 70 -20 12 -11 28 -20 37 -20 8 0 15 -4 15 -10 0 -5 9 -10 20 -10 11 0 20 -4 20 -10 0 -5 16 -10 35 -10 l34 0 3 228 c2 125 7 235 12 244 13 27 -24 37 -41 11 -7 -11 -51 -59 -96 -107 -75 -78 -87 -86 -120 -86 l-37 0 0 216 c0 195 2 218 18 230 20 16 108 19 117 4 3 -5 31 -10 61 -10 50 0 54 -2 54 -23 0 -13 9 -32 20 -42 11 -10 18 -20 16 -22 -9 -9 38 -53 56 -53 11 0 18 -7 18 -20 0 -11 -4 -20 -10 -20 -5 0 -10 -13 -10 -30 0 -16 5 -30 10 -30 6 0 10 -9 10 -20 0 -11 5 -20 10 -20 6 0 10 -13 10 -30 0 -16 5 -30 10 -30 6 0 10 -9 10 -20 0 -11 5 -20 10 -20 6 0 10 -6 10 -12 0 -20 43 -64 70 -73 22 -7 23 -6 12 8 -10 12 -12 82 -9 319 1 166 7 313 11 326 l8 22 -156 0 c-97 0 -156 4 -156 10 0 6 -7 10 -15 10 -8 0 -15 -4 -15 -10 0 -6 -73 -10 -199 -10 -123 0 -202 4 -206 10 -10 17 -257 12 -272 -5z"/>
 <path d="M2388 7945 c6 -22 26 -45 39 -45 14 0 103 -92 103 -106 0 -8 4 -14 9 -14 6 0 12 -139 16 -332 8 -467 8 -517 0 -656 -6 -102 -10 -122 -22 -118 -8 3 -35 6 -59 6 -31 0 -44 4 -44 14 0 8 -3 16 -7 18 -12 5 -63 104 -63 121 0 8 -7 20 -15 27 -8 7 -12 16 -9 21 3 5 0 9 -5 9 -6 0 -11 11 -11 25 0 14 -4 25 -10 25 -5 0 -10 9 -10 20 0 11 -4 20 -10 20 -5 0 -10 9 -10 20 0 11 -4 20 -10 20 -5 0 -10 10 -10 23 -1 28 -34 72 -49 63 -15 -9 -16 -596 -1 -596 6 0 10 -7 10 -15 0 -13 58 -15 460 -15 253 0 460 3 460 8 0 4 10 18 23 32 15 18 30 24 50 22 l27 -3 -2 288 -3 288 -25 0 c-20 0 -26 -6 -28 -27 -2 -16 -8 -28 -13 -28 -5 0 -9 -7 -9 -15 0 -8 -4 -15 -10 -15 -5 0 -10 -16 -10 -35 0 -19 -4 -35 -10 -35 -5 0 -10 -25 -10 -55 0 -34 -4 -55 -11 -55 -15 0 -59 -51 -59 -67 0 -7 -4 -13 -8 -13 -4 0 -16 -20 -26 -45 -18 -42 -21 -45 -57 -45 -20 0 -44 -3 -53 -6 -14 -6 -16 31 -16 368 0 274 -3 377 -12 386 -9 9 -9 17 2 36 12 24 11 90 -6 229 -4 30 -2 53 5 60 6 6 11 17 11 25 0 18 101 113 112 106 4 -3 8 -1 8 4 0 5 8 12 19 15 11 3 20 16 23 33 l4 29 -337 0 c-331 0 -336 0 -331 -20z"/>
 <path d="M3130 5797 c-19 -6 -37 -13 -40 -16 -24 -27 -39 -32 -62 -19 -13 7 -26 18 -30 23 -4 6 -86 10 -210 10 -201 0 -204 0 -259 -27 -61 -31 -157 -124 -180 -175 -7 -18 -17 -33 -21 -33 -5 0 -8 -11 -8 -25 0 -14 -4 -25 -10 -25 -5 0 -10 -11 -10 -25 0 -14 -4 -25 -10 -25 -5 0 -10 -9 -10 -19 0 -11 -4 -23 -10 -26 -5 -3 -10 -26 -10 -51 0 -24 -4 -44 -10 -44 -5 0 -10 -15 -10 -34 0 -19 -4 -38 -10 -41 -5 -3 -10 -44 -10 -91 0 -49 -4 -84 -10 -84 -5 0 -10 -7 -10 -15 0 -8 5 -15 10 -15 6 0 10 -28 10 -65 0 -37 4 -65 10 -65 6 0 10 -16 10 -35 0 -19 5 -35 10 -35 6 0 10 -16 10 -35 0 -19 4 -43 9 -53 39 -77 51 -106 51 -123 0 -10 4 -19 9 -19 5 0 19 -21 31 -46 24 -51 115 -154 136 -154 8 0 14 -4 14 -10 0 -5 9 -10 20 -10 11 0 20 -4 20 -10 0 -5 11 -10 25 -10 14 0 25 -4 25 -10 0 -5 24 -10 54 -10 30 0 58 -4 61 -10 3 -5 42 -10 86 -10 46 0 79 4 79 10 0 6 14 10 30 10 17 0 30 5 30 10 0 6 9 10 20 10 11 0 20 5 20 10 0 6 25 10 55 10 30 0 55 -4 55 -10 0 -5 9 -10 21 -10 11 0 17 -4 14 -10 -7 -11 34 -14 59 -4 14 5 16 39 16 270 l0 264 -30 0 c-22 0 -30 -5 -30 -18 0 -10 -9 -28 -20 -40 -11 -12 -20 -25 -20 -30 0 -5 -11 -19 -25 -32 -14 -13 -25 -27 -25 -32 0 -16 -68 -80 -79 -74 -6 4 -9 1 -6 -7 7 -17 -47 -66 -100 -92 -22 -11 -62 -20 -90 -20 -44 -2 -54 2 -82 31 -18 17 -33 35 -33 38 0 3 -8 25 -19 49 -10 23 -23 54 -29 69 -6 15 -14 79 -18 143 -4 63 -11 115 -15 115 -5 0 -9 70 -9 155 0 86 4 155 9 155 5 0 12 23 16 52 7 46 20 83 35 98 3 3 12 19 20 35 18 35 55 75 70 75 5 0 10 5 10 10 0 6 9 10 20 10 11 0 20 5 20 10 0 6 9 10 20 10 11 0 20 -4 20 -10 0 -5 7 -10 16 -10 23 0 43 -29 44 -62 0 -16 5 -28 10 -28 6 0 10 -65 10 -175 0 -96 -4 -175 -9 -175 -5 0 -12 -11 -15 -24 -3 -14 -20 -33 -36 -43 -17 -9 -30 -21 -30 -25 0 -4 -9 -8 -20 -8 -16 0 -20 -7 -20 -35 l0 -35 233 0 c250 0 281 5 292 49 6 24 -21 61 -45 61 -5 0 -10 5 -10 10 0 6 -7 10 -15 10 -8 0 -15 6 -15 13 0 6 0 161 0 344 0 308 -1 333 -17 341 -11 5 -32 5 -53 -1z"/>
 <path d="M1180 3625 c0 -8 10 -23 22 -33 45 -34 114 -108 126 -132 8 -17 13 -121 16 -340 3 -173 8 -359 11 -414 4 -65 3 -102 -4 -109 -7 -7 -11 -57 -11 -124 l0 -113 -58 0 c-61 0 -59 -2 -102 75 -10 18 -16 36 -13 39 4 3 1 6 -5 6 -7 0 -12 11 -12 25 0 14 -4 25 -10 25 -5 0 -10 9 -10 20 0 11 -4 20 -10 20 -5 0 -10 9 -10 20 0 11 -4 20 -10 20 -5 0 -10 11 -10 25 0 14 -3 25 -7 25 -10 0 -33 49 -33 69 -1 23 -25 51 -44 51 -14 0 -16 -29 -16 -305 l0 -305 468 0 467 1 25 28 c20 23 29 27 55 21 l30 -7 0 286 0 286 -36 0 c-31 0 -35 -3 -31 -22 2 -13 -1 -23 -7 -23 -6 0 -11 -9 -11 -21 0 -11 -4 -17 -10 -14 -6 4 -10 -7 -10 -24 0 -17 -5 -31 -11 -31 -7 0 -10 -21 -7 -60 2 -44 0 -60 -10 -60 -22 0 -57 -43 -87 -108 l-30 -62 -55 0 -55 0 0 368 c-1 202 -2 376 -3 387 -1 11 1 40 4 64 4 24 1 83 -6 131 -9 66 -10 96 -1 122 15 45 76 109 141 146 19 12 24 12 32 0 7 -10 8 -8 4 5 -3 10 -6 27 -6 38 0 18 -11 19 -330 19 -288 0 -330 -2 -330 -15z"/>
 <path d="M2570 3631 c-8 -5 -33 -12 -55 -16 -22 -3 -58 -16 -80 -28 -55 -30 -195 -171 -195 -197 0 -6 -4 -10 -10 -10 -5 0 -10 -9 -10 -20 0 -11 -4 -20 -10 -20 -5 0 -10 -9 -10 -20 0 -11 -4 -20 -10 -20 -5 0 -10 -11 -10 -25 0 -14 -4 -25 -10 -25 -5 0 -10 -16 -10 -35 0 -19 -4 -35 -8 -35 -20 0 -44 -226 -39 -356 4 -124 23 -234 39 -234 5 0 8 -11 8 -25 0 -14 5 -25 10 -25 6 0 10 -7 10 -15 0 -8 5 -15 10 -15 6 0 10 -7 10 -15 0 -8 5 -15 10 -15 6 0 10 -6 10 -14 0 -16 164 -186 179 -186 6 0 11 -4 11 -8 0 -4 14 -16 30 -25 17 -10 30 -25 30 -34 0 -36 30 -42 192 -43 86 0 159 4 162 9 3 4 26 11 52 15 25 3 58 15 74 26 15 11 31 20 34 20 24 0 139 143 167 208 8 17 17 32 21 32 5 0 8 11 8 24 0 14 5 28 10 31 6 3 10 19 10 36 0 16 5 29 10 29 6 0 10 14 10 30 0 17 5 30 10 30 6 0 10 88 10 245 0 157 -4 245 -10 245 -5 0 -10 14 -10 30 0 17 -4 30 -10 30 -5 0 -10 11 -10 25 0 14 -4 25 -10 25 -5 0 -10 6 -10 13 0 7 -9 23 -20 35 -11 12 -20 24 -20 27 0 12 -70 75 -84 75 -14 0 -26 21 -26 47 0 8 -6 20 -12 27 -7 7 -22 25 -33 39 -11 15 -25 27 -32 27 -7 0 -13 5 -13 10 0 6 -9 10 -20 10 -11 0 -20 5 -20 10 0 6 -9 10 -19 10 -11 0 -22 4 -25 9 -3 5 -30 12 -61 16 -30 3 -57 11 -60 16 -8 11 -144 11 -165 0z m160 -231 c0 -5 6 -7 13 -4 16 6 44 -27 76 -86 17 -33 25 -68 28 -127 3 -46 10 -83 14 -83 5 0 9 -106 9 -235 0 -150 -4 -235 -10 -235 -5 0 -10 -21 -10 -47 0 -27 -6 -59 -13 -73 -45 -85 -69 -109 -109 -110 -16 0 -28 -4 -28 -10 0 -5 -13 -10 -30 -10 -16 0 -30 5 -30 11 0 6 -6 9 -14 6 -15 -6 -96 71 -96 91 0 7 -4 12 -10 12 -5 0 -10 18 -10 40 0 22 -4 40 -10 40 -6 0 -10 56 -10 147 l0 147 77 -77 c69 -69 80 -77 115 -77 21 0 38 5 38 10 0 6 6 10 13 10 6 1 26 19 42 41 17 22 40 51 53 64 30 32 29 75 -3 105 -14 13 -25 29 -25 37 0 7 -4 13 -10 13 -5 0 -10 7 -10 15 0 8 -4 15 -10 15 -5 0 -10 9 -10 20 0 11 -4 20 -9 20 -5 0 -11 12 -13 28 -3 24 -7 27 -43 29 -37 2 -43 -1 -78 -45 -21 -26 -46 -60 -55 -77 -9 -16 -20 -32 -24 -36 -4 -3 -17 -23 -28 -45 l-19 -39 -1 142 c0 84 4 144 10 148 6 3 10 28 10 56 0 27 5 49 10 49 6 0 10 7 10 15 0 8 5 15 10 15 6 0 10 6 10 13 0 24 47 59 89 64 23 3 41 10 41 14 0 5 11 9 25 9 14 0 25 -4 25 -10z"/>
 <path d="M3158 1553 c-11 -3 -18 -14 -18 -29 0 -13 -4 -24 -10 -24 -5 0 -10 -7 -10 -15 0 -8 -4 -15 -8 -15 -4 0 -13 -12 -20 -27 -16 -37 -62 -117 -70 -123 -10 -7 -42 -62 -49 -82 -3 -10 -9 -18 -14 -18 -5 0 -9 -7 -9 -15 0 -8 -4 -15 -10 -15 -5 0 -10 -7 -10 -15 0 -8 -4 -15 -10 -15 -5 0 -10 -7 -10 -15 0 -8 -4 -15 -10 -15 -5 0 -10 -7 -10 -15 0 -8 -3 -15 -8 -15 -4 0 -16 -19 -26 -42 -10 -24 -21 -45 -25 -48 -13 -9 -71 -98 -71 -109 0 -6 -4 -11 -10 -11 -5 0 -10 -7 -10 -15 0 -8 -4 -15 -8 -15 -5 0 -15 -12 -23 -27 -8 -16 -22 -35 -31 -44 -10 -9 -18 -26 -18 -38 0 -11 -5 -21 -11 -21 -5 0 -8 -4 -5 -9 3 -5 -1 -14 -9 -21 -13 -11 -15 26 -15 312 0 337 1 348 42 348 10 0 18 3 18 8 0 10 51 32 61 26 5 -3 6 2 3 10 -3 9 -2 16 4 16 5 0 12 15 14 33 l3 32 -285 0 -286 0 5 -30 c2 -16 13 -38 23 -47 12 -10 17 -22 12 -29 -4 -8 -3 -9 5 -5 17 11 71 -16 77 -39 2 -11 3 -278 2 -594 l-3 -574 -35 -20 c-19 -10 -38 -24 -41 -29 -3 -5 -22 7 -42 26 -37 36 -37 36 -37 123 0 71 -4 93 -20 113 -10 13 -15 29 -11 35 4 5 13 29 20 51 27 85 -15 621 -49 632 -6 2 -10 12 -10 23 0 10 -4 19 -10 19 -5 0 -10 7 -10 16 0 8 -22 37 -50 64 -28 27 -50 58 -50 69 0 12 -4 21 -10 21 -5 0 -10 5 -10 11 0 17 -87 99 -105 99 -8 0 -15 5 -15 10 0 6 -9 10 -20 10 -11 0 -20 5 -20 10 0 6 -11 10 -24 10 -14 0 -28 5 -31 10 -8 13 -192 13 -200 0 -3 -6 -17 -10 -31 -10 -13 0 -24 -4 -24 -10 0 -5 -9 -10 -20 -10 -11 0 -20 -4 -20 -10 0 -5 -5 -10 -12 -10 -14 0 -128 -115 -128 -129 0 -6 -4 -11 -10 -11 -5 0 -10 -6 -10 -13 0 -7 -9 -23 -20 -35 -11 -12 -20 -33 -20 -47 0 -14 -4 -25 -10 -25 -5 0 -10 -9 -10 -20 0 -11 -4 -20 -9 -20 -5 0 -12 -30 -16 -67 -4 -38 -11 -72 -15 -78 -4 -5 -11 -29 -14 -52 -3 -24 -9 -61 -12 -83 -3 -22 -3 -48 2 -58 20 -46 31 -108 23 -130 -5 -13 -9 -119 -9 -237 0 -132 -4 -216 -10 -220 -5 -3 -10 -12 -10 -20 0 -16 -59 -79 -84 -88 -13 -5 -16 -16 -14 -44 l3 -38 285 0 c248 0 285 2 288 15 1 9 -29 49 -68 89 l-70 73 -1 137 c-1 393 3 657 12 666 5 5 9 30 9 56 0 26 5 51 10 54 6 3 10 15 10 27 0 34 58 108 84 108 8 0 26 5 40 11 30 14 86 -4 86 -27 0 -8 5 -14 10 -14 6 0 10 -7 10 -15 0 -8 5 -15 10 -15 6 0 10 -15 10 -34 0 -19 5 -38 10 -41 5 -3 10 -21 10 -39 0 -17 5 -37 12 -44 8 -8 11 -127 12 -430 l1 -418 -42 -43 c-24 -23 -43 -46 -43 -51 0 -5 -9 -12 -21 -15 -14 -5 -19 -14 -17 -28 l3 -22 376 -3 c400 -2 411 -1 469 47 50 41 110 119 110 144 0 9 5 17 10 17 6 0 10 7 10 15 0 8 5 15 10 15 6 0 10 10 10 23 0 13 9 33 20 45 11 12 20 26 20 32 0 5 5 10 10 10 6 0 10 7 10 15 0 8 5 15 10 15 6 0 10 7 10 15 0 8 4 15 9 15 5 0 12 11 15 25 4 14 10 25 15 25 5 0 14 14 21 30 7 17 16 30 21 30 5 0 9 6 9 13 0 6 9 23 20 37 l20 25 0 -207 c0 -113 -3 -213 -6 -222 -3 -9 -13 -16 -21 -16 -7 0 -25 -11 -39 -25 -14 -14 -29 -25 -34 -25 -6 0 -10 -22 -10 -50 l0 -50 275 0 275 0 0 44 c0 42 -2 44 -33 50 -44 8 -77 33 -77 57 0 10 -4 19 -10 19 -6 0 -10 73 -10 200 0 127 4 200 10 200 6 0 10 9 10 20 0 11 -4 20 -10 20 -7 0 -10 148 -10 424 0 273 4 427 10 431 6 3 10 18 10 33 0 20 -8 33 -29 45 -16 9 -31 16 -33 16 -1 -1 -11 -3 -20 -6z"/>
 <path d="M358 1467 c5 -18 -8 -17 -53 4 -11 5 -78 8 -150 7 -126 -3 -130 -4 -128 -24 1 -12 34 -52 73 -89 l70 -68 0 -352 c0 -239 3 -354 11 -362 8 -8 8 -13 0 -17 -7 -5 -11 -69 -11 -190 0 -168 -2 -184 -20 -204 -11 -12 -20 -24 -20 -27 0 -9 -66 -72 -89 -84 -13 -7 -21 -21 -21 -38 l0 -26 183 8 c242 9 253 9 320 0 35 -5 93 -3 150 4 85 12 115 20 159 42 10 5 26 9 35 10 10 0 32 9 48 20 17 11 38 22 48 25 9 4 17 10 17 14 0 4 16 25 35 46 19 21 35 44 35 51 0 7 5 13 10 13 6 0 10 9 10 19 0 11 5 21 10 23 15 5 16 241 1 246 -6 2 -11 10 -11 18 0 8 -4 14 -10 14 -5 0 -10 9 -10 20 0 11 -4 20 -10 20 -5 0 -10 6 -10 14 0 8 -3 16 -8 18 -4 2 -24 26 -44 54 -48 66 -94 103 -144 116 -33 9 -40 15 -36 30 2 10 8 18 13 18 5 0 9 7 9 15 0 8 5 15 10 15 6 0 10 9 10 20 0 11 5 20 10 20 6 0 10 9 10 20 0 11 5 20 10 20 6 0 10 9 10 20 0 11 5 20 10 20 6 0 10 11 10 25 0 14 5 25 10 25 6 0 10 13 10 30 0 31 32 101 56 121 8 6 14 16 14 22 0 5 43 52 95 103 52 51 95 101 95 111 0 10 -10 27 -22 38 -21 18 -37 20 -181 19 -146 -2 -160 -4 -178 -23 -10 -11 -19 -25 -19 -31 0 -5 -4 -10 -10 -10 -5 0 -10 -7 -10 -15 0 -9 -11 -33 -25 -55 -14 -22 -25 -46 -25 -55 0 -8 -4 -15 -8 -15 -5 0 -20 -21 -33 -47 -13 -27 -27 -49 -31 -51 -5 -2 -8 -10 -8 -18 0 -8 -4 -14 -10 -14 -5 0 -10 -7 -10 -15 0 -9 -9 -25 -20 -37 -11 -12 -20 -28 -20 -35 0 -7 -4 -13 -10 -13 -5 0 -10 -7 -10 -16 0 -9 -9 -25 -21 -35 -11 -10 -18 -22 -15 -27 3 -6 -1 -15 -9 -22 -13 -11 -15 9 -15 168 l0 180 61 61 c34 34 70 61 81 61 15 0 19 6 16 28 l-3 27 -146 5 c-136 5 -146 4 -141 -13z m262 -867 c0 -5 15 -10 33 -10 19 0 42 -8 54 -19 12 -11 24 -17 27 -14 3 4 6 -1 6 -10 0 -10 5 -17 10 -17 6 0 10 -16 10 -35 0 -19 5 -35 10 -35 6 0 10 -20 10 -45 0 -25 -4 -45 -10 -45 -5 0 -10 -13 -10 -30 0 -16 -4 -30 -10 -30 -5 0 -9 -5 -7 -12 1 -7 -8 -17 -20 -23 -13 -5 -23 -13 -23 -17 0 -5 -11 -8 -25 -8 -14 0 -25 -4 -25 -10 0 -5 -20 -10 -45 -10 -25 0 -45 -4 -45 -10 0 -5 -16 -10 -35 -10 l-35 0 0 200 0 200 65 0 c37 0 65 -4 65 -10z"/>
 </g>
</svg>